<?xml version="1.0" standalone="no"?>
<!DOCTYPE svg PUBLIC "-//W3C//DTD SVG 20010904//EN"
 "http://www.w3.org/TR/2001/REC-SVG-20010904/DTD/svg10.dtd">
<svg version="1.0" xmlns="http://www.w3.org/2000/svg"
 width="90.000000pt" height="90.000000pt" viewBox="0 0 90.000000 90.000000"
 preserveAspectRatio="xMidYMid meet">
<metadata>
Created by potrace 1.11, written by Peter Selinger 2001-2013
</metadata>
<g transform="translate(0.000000,90.000000) scale(0.100000,-0.100000)"
fill="#000000" stroke="none">
<path d="M65 737 c-3 -7 -4 -140 -3 -297 l3 -285 172 -3 171 -2 11 -30 c14
-42 54 -38 62 5 4 19 13 20 176 23 169 2 173 3 178 25 3 12 4 146 3 297 l-3
275 -172 0 c-148 0 -175 -2 -189 -17 -16 -15 -19 -15 -53 3 -31 16 -57 19
-194 19 -118 0 -159 -3 -162 -13z m335 -67 c19 -19 20 -33 20 -240 l0 -220
-150 0 -150 0 0 240 0 240 130 0 c117 0 132 -2 150 -20z m380 -220 l0 -240
-150 0 -150 0 0 220 c0 278 -12 260 170 260 l130 0 0 -240z"/>
</g>
</svg>
